<svg width="44" height="44" viewBox="0 0 44 44" fill="none" xmlns="http://www.w3.org/2000/svg">
<path d="M8.9987 9.36393H34.9987V15.3639H8.9987V9.36393Z" fill="white"/>
<path d="M8.9987 18.3639H34.9987V24.3639H8.9987V18.3639Z" fill="white"/>
<path d="M8.9987 28.3639H34.9987V34.3639H8.9987V28.3639Z" fill="white"/>
<path d="M38.931 0.322266H5.70377C3.09307 0.322266 0.957031 2.4583 0.957031 5.06901V38.2962C0.957031 40.9069 3.09307 43.0429 5.70377 43.0429H38.931C41.5417 43.0429 43.6777 40.9069 43.6777 38.2962V5.06901C43.6777 2.4583 41.5417 0.322266 38.931 0.322266ZM27.0641 33.5495H10.4505V28.8027H27.0641V33.5495ZM34.1842 24.056H10.4505V19.3092H34.1842V24.056ZM34.1842 14.5625H10.4505V9.81575H34.1842V14.5625Z" fill="url(#paint0_linear_2288_40050)"/>
<defs>
<linearGradient id="paint0_linear_2288_40050" x1="4.5" y1="3.86395" x2="43.9985" y2="43.364" gradientUnits="userSpaceOnUse">
<stop stop-color="#264EFF"/>
<stop offset="1" stop-color="#FF0000"/>
</linearGradient>
</defs>
</svg>
