<svg width="17" height="17" viewBox="0 0 17 17" fill="none" xmlns="http://www.w3.org/2000/svg">
<path d="M3.37806 10.7802C4.08917 10.778 4.77337 10.5063 5.29432 10.019L10.3838 12.9467C10.2132 13.6175 10.2884 14.3277 10.5955 14.9473C10.9026 15.5669 11.4211 16.0544 12.0561 16.3206C12.6911 16.5868 13.4 16.6139 14.0532 16.3968C14.7063 16.1798 15.26 15.7332 15.6128 15.1388C15.9656 14.5444 16.094 13.8419 15.9744 13.16C15.8548 12.4781 15.4953 11.8624 14.9616 11.4256C14.4279 10.9887 13.7558 10.76 13.0683 10.7813C12.3808 10.8025 11.7239 11.0724 11.2179 11.5414L6.12847 8.61364C6.18213 8.40902 6.2114 8.19704 6.21628 7.98505L11.2163 5.10809C11.6977 5.54907 12.3152 5.80994 12.965 5.84695C13.6149 5.88395 14.2576 5.69484 14.7854 5.31133C15.3131 4.92782 15.6938 4.37326 15.8636 3.74067C16.0334 3.10808 15.9819 2.43596 15.7178 1.83706C15.4537 1.23816 14.993 0.748918 14.413 0.451418C13.8331 0.153919 13.1692 0.0662592 12.5326 0.203145C11.8961 0.340031 11.3257 0.693134 10.9171 1.20322C10.5085 1.7133 10.2866 2.34932 10.2886 3.00459C10.2919 3.24031 10.3236 3.47522 10.3838 3.70276L5.76262 6.36037C5.49463 5.94299 5.1234 5.60298 4.6854 5.37375C4.24739 5.14451 3.75768 5.03394 3.26439 5.05288C2.77109 5.07183 2.29117 5.21965 1.87179 5.48182C1.45241 5.74399 1.10799 6.11148 0.872375 6.5482C0.636758 6.98492 0.518049 7.47584 0.527912 7.97272C0.537774 8.4696 0.675868 8.95535 0.928627 9.38224C1.18139 9.80913 1.54011 10.1625 1.96956 10.4076C2.39901 10.6527 2.88441 10.7811 3.37806 10.7802Z" fill="white"/>
</svg>
